<mxfile host="app.diagrams.net" modified="2023-07-14T06:56:15.806Z" agent="Mozilla/5.0 (Windows NT 10.0; Win64; x64) AppleWebKit/537.36 (KHTML, like Gecko) Chrome/114.0.0.0 Safari/537.36 Edg/114.0.1823.67" etag="OSKrFZZwHDZnnrvMnyow" version="21.6.2" type="github">
  <diagram name="第 1 页" id="PYZtmiYzRfJrxJ9XXe3V">
    <mxGraphModel dx="1154" dy="796" grid="1" gridSize="10" guides="1" tooltips="1" connect="1" arrows="1" fold="1" page="1" pageScale="1" pageWidth="827" pageHeight="1169" math="0" shadow="0">
      <root>
        <mxCell id="0" />
        <mxCell id="1" parent="0" />
        <mxCell id="eztFIdGAr2qNL9vbDgbI-54" value="" style="rounded=1;whiteSpace=wrap;html=1;sketch=1;curveFitting=1;jiggle=2;fillColor=#dae8fc;strokeColor=#6c8ebf;" parent="1" vertex="1">
          <mxGeometry x="293" y="560" width="247" height="90" as="geometry" />
        </mxCell>
        <mxCell id="eztFIdGAr2qNL9vbDgbI-55" value="" style="rounded=1;whiteSpace=wrap;html=1;sketch=1;curveFitting=1;jiggle=2;fillColor=#dae8fc;strokeColor=#6c8ebf;" parent="1" vertex="1">
          <mxGeometry x="308" y="703.5" width="207" height="66.5" as="geometry" />
        </mxCell>
        <mxCell id="eztFIdGAr2qNL9vbDgbI-56" value="" style="rounded=1;whiteSpace=wrap;html=1;sketch=1;curveFitting=1;jiggle=2;fillColor=#dae8fc;strokeColor=#6c8ebf;" parent="1" vertex="1">
          <mxGeometry x="295" y="795.25" width="236.5" height="107.5" as="geometry" />
        </mxCell>
        <mxCell id="eztFIdGAr2qNL9vbDgbI-57" value="" style="rounded=1;whiteSpace=wrap;html=1;sketch=1;curveFitting=1;jiggle=2;fillColor=#dae8fc;strokeColor=#6c8ebf;" parent="1" vertex="1">
          <mxGeometry x="303.5" y="922" width="210" height="90" as="geometry" />
        </mxCell>
        <mxCell id="eztFIdGAr2qNL9vbDgbI-52" value="" style="rounded=1;whiteSpace=wrap;html=1;sketch=1;curveFitting=1;jiggle=2;fillColor=#dae8fc;strokeColor=#6c8ebf;" parent="1" vertex="1">
          <mxGeometry x="287" y="99" width="296" height="142" as="geometry" />
        </mxCell>
        <mxCell id="eztFIdGAr2qNL9vbDgbI-53" value="" style="rounded=1;whiteSpace=wrap;html=1;sketch=1;curveFitting=1;jiggle=2;fillColor=#dae8fc;strokeColor=#6c8ebf;" parent="1" vertex="1">
          <mxGeometry x="299" y="419" width="248" height="99" as="geometry" />
        </mxCell>
        <mxCell id="eztFIdGAr2qNL9vbDgbI-51" value="" style="rounded=1;whiteSpace=wrap;html=1;sketch=1;curveFitting=1;jiggle=2;fillColor=#dae8fc;strokeColor=#6c8ebf;" parent="1" vertex="1">
          <mxGeometry x="296" y="260" width="268" height="120" as="geometry" />
        </mxCell>
        <mxCell id="eztFIdGAr2qNL9vbDgbI-3" style="edgeStyle=orthogonalEdgeStyle;rounded=0;orthogonalLoop=1;jettySize=auto;html=1;" parent="1" source="CSStCupQpvHum1PfYjaq-1" target="eztFIdGAr2qNL9vbDgbI-1" edge="1">
          <mxGeometry relative="1" as="geometry" />
        </mxCell>
        <mxCell id="CSStCupQpvHum1PfYjaq-1" value="发起指标加工流程" style="rounded=1;whiteSpace=wrap;html=1;sketch=1;curveFitting=1;jiggle=2;strokeColor=#FF0000;" parent="1" vertex="1">
          <mxGeometry x="120" y="140" width="120" height="60" as="geometry" />
        </mxCell>
        <mxCell id="eztFIdGAr2qNL9vbDgbI-20" style="edgeStyle=orthogonalEdgeStyle;rounded=0;orthogonalLoop=1;jettySize=auto;html=1;entryX=0.5;entryY=0;entryDx=0;entryDy=0;" parent="1" source="eztFIdGAr2qNL9vbDgbI-1" target="eztFIdGAr2qNL9vbDgbI-19" edge="1">
          <mxGeometry relative="1" as="geometry" />
        </mxCell>
        <mxCell id="eztFIdGAr2qNL9vbDgbI-1" value="调整项目组成" style="rounded=1;whiteSpace=wrap;html=1;sketch=1;curveFitting=1;jiggle=2;strokeColor=#FF9933;" parent="1" vertex="1">
          <mxGeometry x="120" y="288" width="120" height="60" as="geometry" />
        </mxCell>
        <mxCell id="eztFIdGAr2qNL9vbDgbI-2" value="指标加工业务流程图" style="rounded=1;whiteSpace=wrap;html=1;fillColor=#f5f5f5;fontColor=#333333;strokeColor=#666666;sketch=1;curveFitting=1;jiggle=2;fontSize=20;" parent="1" vertex="1">
          <mxGeometry x="284" y="20" width="266" height="30" as="geometry" />
        </mxCell>
        <mxCell id="eztFIdGAr2qNL9vbDgbI-7" value="绑定造价类别" style="text;html=1;strokeColor=none;fillColor=none;align=center;verticalAlign=middle;whiteSpace=wrap;rounded=0;" parent="1" vertex="1">
          <mxGeometry x="299.5" y="100" width="140" height="40" as="geometry" />
        </mxCell>
        <mxCell id="eztFIdGAr2qNL9vbDgbI-8" value="选择项目地点" style="text;html=1;strokeColor=none;fillColor=none;align=center;verticalAlign=middle;whiteSpace=wrap;rounded=0;" parent="1" vertex="1">
          <mxGeometry x="447" y="105" width="90" height="25" as="geometry" />
        </mxCell>
        <mxCell id="eztFIdGAr2qNL9vbDgbI-9" value="选择&lt;b&gt;计价成果文件&lt;/b&gt;" style="text;html=1;strokeColor=none;fillColor=none;align=center;verticalAlign=middle;whiteSpace=wrap;rounded=0;" parent="1" vertex="1">
          <mxGeometry x="307" y="153" width="125" height="30" as="geometry" />
        </mxCell>
        <mxCell id="eztFIdGAr2qNL9vbDgbI-10" value="选择单价构成：非全or全" style="text;html=1;strokeColor=none;fillColor=none;align=center;verticalAlign=middle;whiteSpace=wrap;rounded=0;" parent="1" vertex="1">
          <mxGeometry x="432" y="152" width="150" height="30" as="geometry" />
        </mxCell>
        <mxCell id="eztFIdGAr2qNL9vbDgbI-11" value="选择指标模版" style="text;html=1;strokeColor=none;fillColor=none;align=center;verticalAlign=middle;whiteSpace=wrap;rounded=0;" parent="1" vertex="1">
          <mxGeometry x="306" y="204" width="125" height="30" as="geometry" />
        </mxCell>
        <mxCell id="eztFIdGAr2qNL9vbDgbI-12" value="相关费用提取方式" style="text;html=1;strokeColor=none;fillColor=none;align=center;verticalAlign=middle;whiteSpace=wrap;rounded=0;" parent="1" vertex="1">
          <mxGeometry x="427" y="204" width="125" height="30" as="geometry" />
        </mxCell>
        <mxCell id="eztFIdGAr2qNL9vbDgbI-14" value="后端生成树形列表" style="text;html=1;strokeColor=none;fillColor=none;align=center;verticalAlign=middle;whiteSpace=wrap;rounded=0;" parent="1" vertex="1">
          <mxGeometry x="358" y="269" width="125" height="30" as="geometry" />
        </mxCell>
        <mxCell id="eztFIdGAr2qNL9vbDgbI-16" value="通过后台配置的模版信息选择所属类别" style="text;html=1;strokeColor=none;fillColor=none;align=center;verticalAlign=middle;whiteSpace=wrap;rounded=0;" parent="1" vertex="1">
          <mxGeometry x="329" y="309.5" width="213" height="17" as="geometry" />
        </mxCell>
        <mxCell id="eztFIdGAr2qNL9vbDgbI-17" value="绑定相关文件信息" style="rounded=0;whiteSpace=wrap;html=1;fillColor=#e1d5e7;strokeColor=#9673a6;" parent="1" vertex="1">
          <mxGeometry x="600" y="150" width="130" height="23" as="geometry" />
        </mxCell>
        <mxCell id="eztFIdGAr2qNL9vbDgbI-18" value="校验是否全部工程匹对完毕" style="text;html=1;strokeColor=none;fillColor=none;align=center;verticalAlign=middle;whiteSpace=wrap;rounded=0;" parent="1" vertex="1">
          <mxGeometry x="351.25" y="340" width="161.5" height="28" as="geometry" />
        </mxCell>
        <mxCell id="eztFIdGAr2qNL9vbDgbI-24" style="edgeStyle=orthogonalEdgeStyle;rounded=0;orthogonalLoop=1;jettySize=auto;html=1;" parent="1" source="eztFIdGAr2qNL9vbDgbI-19" target="eztFIdGAr2qNL9vbDgbI-23" edge="1">
          <mxGeometry relative="1" as="geometry" />
        </mxCell>
        <mxCell id="eztFIdGAr2qNL9vbDgbI-19" value="填写主要信息" style="rounded=1;whiteSpace=wrap;html=1;sketch=1;curveFitting=1;jiggle=2;gradientColor=none;strokeColor=#FF0080;" parent="1" vertex="1">
          <mxGeometry x="120" y="431" width="120" height="60" as="geometry" />
        </mxCell>
        <mxCell id="eztFIdGAr2qNL9vbDgbI-21" value="填写表单" style="rounded=0;whiteSpace=wrap;html=1;fillColor=#e1d5e7;strokeColor=#9673a6;" parent="1" vertex="1">
          <mxGeometry x="600" y="448.5" width="130" height="23" as="geometry" />
        </mxCell>
        <mxCell id="eztFIdGAr2qNL9vbDgbI-22" value="根据后台配置选择所属类别" style="rounded=0;whiteSpace=wrap;html=1;fillColor=#e1d5e7;strokeColor=#9673a6;" parent="1" vertex="1">
          <mxGeometry x="600" y="296" width="150" height="24" as="geometry" />
        </mxCell>
        <mxCell id="eztFIdGAr2qNL9vbDgbI-23" value="填写基本信息" style="rounded=1;whiteSpace=wrap;html=1;sketch=1;curveFitting=1;jiggle=2;" parent="1" vertex="1">
          <mxGeometry x="120" y="566" width="120" height="60" as="geometry" />
        </mxCell>
        <mxCell id="eztFIdGAr2qNL9vbDgbI-25" style="edgeStyle=orthogonalEdgeStyle;rounded=0;orthogonalLoop=1;jettySize=auto;html=1;exitX=0.5;exitY=1;exitDx=0;exitDy=0;entryX=0.5;entryY=0;entryDx=0;entryDy=0;" parent="1" source="eztFIdGAr2qNL9vbDgbI-23" target="eztFIdGAr2qNL9vbDgbI-26" edge="1">
          <mxGeometry relative="1" as="geometry">
            <mxPoint x="179.5" y="640" as="sourcePoint" />
            <mxPoint x="180" y="710" as="targetPoint" />
          </mxGeometry>
        </mxCell>
        <mxCell id="eztFIdGAr2qNL9vbDgbI-28" style="edgeStyle=orthogonalEdgeStyle;rounded=0;orthogonalLoop=1;jettySize=auto;html=1;entryX=0.5;entryY=0;entryDx=0;entryDy=0;" parent="1" source="eztFIdGAr2qNL9vbDgbI-26" target="eztFIdGAr2qNL9vbDgbI-27" edge="1">
          <mxGeometry relative="1" as="geometry" />
        </mxCell>
        <mxCell id="eztFIdGAr2qNL9vbDgbI-26" value="调整指标归属" style="rounded=1;whiteSpace=wrap;html=1;sketch=1;curveFitting=1;jiggle=2;strokeColor=#9999FF;" parent="1" vertex="1">
          <mxGeometry x="120" y="699" width="120" height="60" as="geometry" />
        </mxCell>
        <mxCell id="eztFIdGAr2qNL9vbDgbI-31" style="edgeStyle=orthogonalEdgeStyle;rounded=0;orthogonalLoop=1;jettySize=auto;html=1;entryX=0.5;entryY=0;entryDx=0;entryDy=0;" parent="1" source="eztFIdGAr2qNL9vbDgbI-27" target="eztFIdGAr2qNL9vbDgbI-30" edge="1">
          <mxGeometry relative="1" as="geometry" />
        </mxCell>
        <mxCell id="eztFIdGAr2qNL9vbDgbI-27" value="填写特征信息" style="rounded=1;whiteSpace=wrap;html=1;sketch=1;curveFitting=1;jiggle=2;strokeColor=#00FFFF;" parent="1" vertex="1">
          <mxGeometry x="120" y="820" width="120" height="60" as="geometry" />
        </mxCell>
        <mxCell id="eztFIdGAr2qNL9vbDgbI-30" value="查看指标" style="rounded=1;whiteSpace=wrap;html=1;sketch=1;curveFitting=1;jiggle=2;strokeColor=#9933FF;" parent="1" vertex="1">
          <mxGeometry x="120" y="940" width="120" height="60" as="geometry" />
        </mxCell>
        <mxCell id="eztFIdGAr2qNL9vbDgbI-37" value="填写占地面积" style="text;html=1;strokeColor=none;fillColor=none;align=center;verticalAlign=middle;whiteSpace=wrap;rounded=0;" parent="1" vertex="1">
          <mxGeometry x="344.25" y="431" width="161.5" height="28" as="geometry" />
        </mxCell>
        <mxCell id="eztFIdGAr2qNL9vbDgbI-39" value="校验必填项" style="text;html=1;strokeColor=none;fillColor=none;align=center;verticalAlign=middle;whiteSpace=wrap;rounded=0;" parent="1" vertex="1">
          <mxGeometry x="341" y="471.5" width="161.5" height="28" as="geometry" />
        </mxCell>
        <mxCell id="eztFIdGAr2qNL9vbDgbI-40" value="填写表单" style="rounded=0;whiteSpace=wrap;html=1;fillColor=#e1d5e7;strokeColor=#9673a6;" parent="1" vertex="1">
          <mxGeometry x="600" y="585" width="130" height="23" as="geometry" />
        </mxCell>
        <mxCell id="eztFIdGAr2qNL9vbDgbI-41" value="填写项目基本信息" style="text;html=1;strokeColor=none;fillColor=none;align=center;verticalAlign=middle;whiteSpace=wrap;rounded=0;" parent="1" vertex="1">
          <mxGeometry x="333" y="570" width="161.5" height="28" as="geometry" />
        </mxCell>
        <mxCell id="eztFIdGAr2qNL9vbDgbI-42" value="鼠标失去焦点即发送update请求" style="text;html=1;strokeColor=none;fillColor=none;align=center;verticalAlign=middle;whiteSpace=wrap;rounded=0;" parent="1" vertex="1">
          <mxGeometry x="327.5" y="608" width="177" height="32" as="geometry" />
        </mxCell>
        <mxCell id="eztFIdGAr2qNL9vbDgbI-43" value="通过表格调整指标归属" style="text;html=1;strokeColor=none;fillColor=none;align=center;verticalAlign=middle;whiteSpace=wrap;rounded=0;" parent="1" vertex="1">
          <mxGeometry x="318" y="720" width="177" height="32" as="geometry" />
        </mxCell>
        <mxCell id="eztFIdGAr2qNL9vbDgbI-44" value="信息匹对" style="rounded=0;whiteSpace=wrap;html=1;fillColor=#e1d5e7;strokeColor=#9673a6;" parent="1" vertex="1">
          <mxGeometry x="600" y="703.5" width="130" height="23" as="geometry" />
        </mxCell>
        <mxCell id="eztFIdGAr2qNL9vbDgbI-45" value="通过表格调整指标归属" style="text;html=1;strokeColor=none;fillColor=none;align=center;verticalAlign=middle;whiteSpace=wrap;rounded=0;" parent="1" vertex="1">
          <mxGeometry x="317.5" y="814" width="177" height="32" as="geometry" />
        </mxCell>
        <mxCell id="eztFIdGAr2qNL9vbDgbI-46" value="生成汇总指标结果表格" style="text;html=1;strokeColor=none;fillColor=none;align=center;verticalAlign=middle;whiteSpace=wrap;rounded=0;" parent="1" vertex="1">
          <mxGeometry x="318" y="930" width="177" height="32" as="geometry" />
        </mxCell>
        <mxCell id="eztFIdGAr2qNL9vbDgbI-47" value="可以对生成结果进行导出" style="text;html=1;strokeColor=none;fillColor=none;align=center;verticalAlign=middle;whiteSpace=wrap;rounded=0;" parent="1" vertex="1">
          <mxGeometry x="319" y="980" width="177" height="32" as="geometry" />
        </mxCell>
        <mxCell id="eztFIdGAr2qNL9vbDgbI-48" value="结果查看" style="rounded=0;whiteSpace=wrap;html=1;fillColor=#e1d5e7;strokeColor=#9673a6;" parent="1" vertex="1">
          <mxGeometry x="600" y="962" width="130" height="23" as="geometry" />
        </mxCell>
        <mxCell id="eztFIdGAr2qNL9vbDgbI-50" value="信息匹对" style="rounded=0;whiteSpace=wrap;html=1;fillColor=#e1d5e7;strokeColor=#9673a6;" parent="1" vertex="1">
          <mxGeometry x="600" y="834" width="130" height="23" as="geometry" />
        </mxCell>
        <mxCell id="rjJRdvK1RyVeSgW0U1bn-3" value="根据页面2调整的所属类别填写主要特征与次要特征" style="text;html=1;strokeColor=none;fillColor=none;align=center;verticalAlign=middle;whiteSpace=wrap;rounded=0;" vertex="1" parent="1">
          <mxGeometry x="317.5" y="852" width="192.5" height="38" as="geometry" />
        </mxCell>
      </root>
    </mxGraphModel>
  </diagram>
</mxfile>
